HIERARCHY
ROOT pelvis
{
	OFFSET 0.003123 -0.351407 0.012037
	CHANNELS 6 Xposition Yposition Zposition Zrotation Yrotation Xrotation 
	JOINT left_hip
	{
		OFFSET 0.058189 -0.092763 -0.026001
		CHANNELS 3 Zrotation Yrotation Xrotation
		JOINT left_knee
		{
			OFFSET 0.054695 -0.378753 -0.009396
			CHANNELS 3 Zrotation Yrotation Xrotation
			JOINT left_ankle
			{
				OFFSET -0.043453 -0.403059 -0.031876
				CHANNELS 3 Zrotation Yrotation Xrotation
				JOINT left_foot
				{
					OFFSET 0.047257 -0.057997 0.118216
					CHANNELS 3 Zrotation Yrotation Xrotation
					End Site
					{
						OFFSET 0.000000 0.000000 0.000000
					}
				}
			}
		}
	}
	JOINT right_hip
	{
		OFFSET -0.063267 -0.103908 -0.021250
		CHANNELS 3 Zrotation Yrotation Xrotation
		JOINT right_knee
		{
			OFFSET -0.044210 -0.362380 -0.016824
			CHANNELS 3 Zrotation Yrotation Xrotation
			JOINT right_ankle
			{
				OFFSET 0.015417 -0.410728 -0.020192
				CHANNELS 3 Zrotation Yrotation Xrotation
				JOINT right_foot
				{
					OFFSET -0.038812 -0.058328 0.119049
					CHANNELS 3 Zrotation Yrotation Xrotation
					End Site
					{
						OFFSET 0.000000 0.000000 0.000000
					}
				}
			}
		}
	}
	JOINT spine_1
	{
		OFFSET -0.002763 0.109891 -0.027618
		CHANNELS 3 Zrotation Yrotation Xrotation
		JOINT spine_2
		{
			OFFSET 0.009448 0.131853 -0.005940
			CHANNELS 3 Zrotation Yrotation Xrotation
			JOINT spine_3
			{
				OFFSET -0.011330 0.052235 0.028447
				CHANNELS 3 Zrotation Yrotation Xrotation
				JOINT neck
				{
					OFFSET -0.012164 0.165167 -0.031615
					CHANNELS 3 Zrotation Yrotation Xrotation
					JOINT head
					{
						OFFSET 0.024783 0.160452 0.020737
						CHANNELS 3 Zrotation Yrotation Xrotation
						End Site
						{
							OFFSET 0.000000 0.000000 0.000000
						}
					}
				}
				JOINT left_collar
				{
					OFFSET 0.046364 0.084944 -0.007220
					CHANNELS 3 Zrotation Yrotation Xrotation
					JOINT left_shoulder
					{
						OFFSET 0.119239 0.057728 -0.015461
						CHANNELS 3 Zrotation Yrotation Xrotation
						JOINT left_elbow
						{
							OFFSET 0.254123 -0.072151 -0.042459
							CHANNELS 3 Zrotation Yrotation Xrotation
							JOINT left_wrist
							{
								OFFSET 0.251987 0.023221 -0.002472
								CHANNELS 3 Zrotation Yrotation Xrotation
								JOINT left_index_1
								{
									OFFSET 0.101902 -0.008688 0.019351
									CHANNELS 3 Zrotation Yrotation Xrotation
									JOINT left_index_2
									{
										OFFSET 0.030149 -0.011154 0.001151
										CHANNELS 3 Zrotation Yrotation Xrotation
										JOINT left_index_3
										{
											OFFSET 0.006504 -0.021577 -0.002433
											CHANNELS 3 Zrotation Yrotation Xrotation
											End Site
											{
												OFFSET 0.000000 0.000000 0.000000
											}
										}
									}
								}
								JOINT left_middle_1
								{
									OFFSET 0.109398 -0.006328 -0.003981
									CHANNELS 3 Zrotation Yrotation Xrotation
									JOINT left_middle_2
									{
										OFFSET 0.026472 -0.015218 -0.004641
										CHANNELS 3 Zrotation Yrotation Xrotation
										JOINT left_middle_3
										{
											OFFSET 0.005022 -0.023347 -0.001911
											CHANNELS 3 Zrotation Yrotation Xrotation
											End Site
											{
												OFFSET 0.000000 0.000000 0.000000
											}
										}
									}
								}
								JOINT left_pinky_1
								{
									OFFSET 0.084047 -0.014539 -0.043750
									CHANNELS 3 Zrotation Yrotation Xrotation
									JOINT left_pinky_2
									{
										OFFSET 0.012124 -0.014448 -0.005375
										CHANNELS 3 Zrotation Yrotation Xrotation
										JOINT left_pinky_3
										{
											OFFSET 0.003798 -0.018853 0.000167
											CHANNELS 3 Zrotation Yrotation Xrotation
											End Site
											{
												OFFSET 0.000000 0.000000 0.000000
											}
										}
									}
								}
								JOINT left_ring_1
								{
									OFFSET 0.097444 -0.009268 -0.027345
									CHANNELS 3 Zrotation Yrotation Xrotation
									JOINT left_ring_2
									{
										OFFSET 0.023561 -0.016057 -0.001895
										CHANNELS 3 Zrotation Yrotation Xrotation
										JOINT left_ring_3
										{
											OFFSET 0.004257 -0.023548 0.000814
											CHANNELS 3 Zrotation Yrotation Xrotation
											End Site
											{
												OFFSET 0.000000 0.000000 0.000000
											}
										}
									}
								}
								JOINT left_thumb_1
								{
									OFFSET 0.040636 -0.017977 0.025611
									CHANNELS 3 Zrotation Yrotation Xrotation
									JOINT left_thumb_2
									{
										OFFSET 0.021637 -0.017639 0.011623
										CHANNELS 3 Zrotation Yrotation Xrotation
										JOINT left_thumb_3
										{
											OFFSET 0.024002 -0.008356 0.006548
											CHANNELS 3 Zrotation Yrotation Xrotation
											End Site
											{
												OFFSET 0.000000 0.000000 0.000000
											}
										}
									}
								}
							}
						}
					}
				}
				JOINT right_collar
				{
					OFFSET -0.047695 0.084339 -0.013400
					CHANNELS 3 Zrotation Yrotation Xrotation
					JOINT right_shoulder
					{
						OFFSET -0.102578 0.053524 -0.012669
						CHANNELS 3 Zrotation Yrotation Xrotation
						JOINT right_elbow
						{
							OFFSET -0.271150 -0.036492 -0.026467
							CHANNELS 3 Zrotation Yrotation Xrotation
							JOINT right_wrist
							{
								OFFSET -0.249267 -0.004533 -0.015325
								CHANNELS 3 Zrotation Yrotation Xrotation
								JOINT right_index_1
								{
									OFFSET -0.099881 -0.011783 0.019600
									CHANNELS 3 Zrotation Yrotation Xrotation
									JOINT right_index_2
									{
										OFFSET -0.030148 -0.011154 0.001151
										CHANNELS 3 Zrotation Yrotation Xrotation
										JOINT right_index_3
										{
											OFFSET -0.006505 -0.021577 -0.002432
											CHANNELS 3 Zrotation Yrotation Xrotation
											End Site
											{
												OFFSET 0.000000 0.000000 0.000000
											}
										}
									}
								}
								JOINT right_middle_1
								{
									OFFSET -0.107376 -0.009422 -0.003734
									CHANNELS 3 Zrotation Yrotation Xrotation
									JOINT right_middle_2
									{
										OFFSET -0.026472 -0.015218 -0.004641
										CHANNELS 3 Zrotation Yrotation Xrotation
										JOINT right_middle_3
										{
											OFFSET -0.005022 -0.023347 -0.001911
											CHANNELS 3 Zrotation Yrotation Xrotation
											End Site
											{
												OFFSET 0.000000 0.000000 0.000000
											}
										}
									}
								}
								JOINT right_pinky_1
								{
									OFFSET -0.082027 -0.017634 -0.043503
									CHANNELS 3 Zrotation Yrotation Xrotation
									JOINT right_pinky_2
									{
										OFFSET -0.012123 -0.014448 -0.005374
										CHANNELS 3 Zrotation Yrotation Xrotation
										JOINT right_pinky_3
										{
											OFFSET -0.003798 -0.018852 0.000167
											CHANNELS 3 Zrotation Yrotation Xrotation
											End Site
											{
												OFFSET 0.000000 0.000000 0.000000
											}
										}
									}
								}
								JOINT right_ring_1
								{
									OFFSET -0.095423 -0.012362 -0.027099
									CHANNELS 3 Zrotation Yrotation Xrotation
									JOINT right_ring_2
									{
										OFFSET -0.023561 -0.016057 -0.001895
										CHANNELS 3 Zrotation Yrotation Xrotation
										JOINT right_ring_3
										{
											OFFSET -0.004257 -0.023548 0.000816
											CHANNELS 3 Zrotation Yrotation Xrotation
											End Site
											{
												OFFSET 0.000000 0.000000 0.000000
											}
										}
									}
								}
								JOINT right_thumb_1
								{
									OFFSET -0.038613 -0.021074 0.025861
									CHANNELS 3 Zrotation Yrotation Xrotation
									JOINT right_thumb_2
									{
										OFFSET -0.021636 -0.017639 0.011623
										CHANNELS 3 Zrotation Yrotation Xrotation
										JOINT right_thumb_3
										{
											OFFSET -0.024004 -0.008353 0.006547
											CHANNELS 3 Zrotation Yrotation Xrotation
											End Site
											{
												OFFSET 0.000000 0.000000 0.000000
											}
										}
									}
								}
							}
						}
					}
				}
			}
		}
	}
}
MOTION
Frames: 5
Frame Time: 0.050000
0.377861 0.643257 1.049896 -128.400310 -69.544351 120.731017 -70.322115 10.814477 -62.943240 90.572835 27.496935 -2.069258 -61.200342 44.243115 99.857319 0.000000 0.000000 0.000000 -46.237177 49.806321 4.784235 27.232019 45.385287 -53.909249 -88.442266 -29.786305 110.976870 0.000000 0.000000 0.000000 35.473579 2.311005 40.655049 14.627410 4.426917 -32.845385 -37.599469 -51.193134 47.796105 9.191414 12.515328 22.462295 0.000000 0.000000 0.000000 12.403615 -3.031778 22.944296 75.388844 -61.825229 -16.943784 68.107764 41.048234 40.121703 18.302009 11.954563 -55.331178 25.705905 6.561163 9.944997 89.773720 -29.592859 -84.260774 0.000000 0.000000 0.000000 0.469601 -20.307666 -7.299425 50.156367 -21.185526 -51.623646 0.000000 0.000000 0.000000 14.221452 -45.396574 -45.733915 23.666266 -0.534259 -1.403996 0.000000 0.000000 0.000000 -6.164513 -36.884133 -11.684112 37.392327 -0.421111 -28.261699 0.000000 0.000000 0.000000 77.198997 7.930358 13.599766 -33.041387 -14.627394 8.992615 0.000000 0.000000 0.000000 -10.049733 15.512480 -7.251483 -20.779402 55.996786 -44.623209 -49.073699 48.351615 -43.701698 -27.317522 6.442139 -32.164421 25.391015 11.893658 3.869819 92.424256 5.687609 -13.905279 0.000000 0.000000 0.000000 39.393841 28.211438 -2.741377 54.841695 19.891314 -29.656432 0.000000 0.000000 0.000000 4.505798 23.557595 -27.552827 25.434138 4.209429 -8.342831 0.000000 0.000000 0.000000 35.241337 28.587343 -4.735563 46.256904 20.709017 -23.532241 0.000000 0.000000 0.000000 -17.067020 -8.172749 -4.404466 15.994149 9.258572 1.124810 0.000000 0.000000 0.000000 
0.377861 0.643257 1.049896 -128.782289 -69.529016 121.221434 -70.533307 10.785795 -63.192757 90.516086 27.397966 -2.169384 -61.378027 44.044895 99.744366 0.000000 0.000000 0.000000 -46.546771 49.866501 4.433162 27.164774 45.362763 -53.960441 -88.534364 -29.758335 111.084593 0.000000 0.000000 0.000000 35.018634 2.237109 40.259837 14.383132 4.298385 -32.413006 -37.205356 -51.753296 48.696019 8.524517 12.825689 22.326812 0.000000 0.000000 0.000000 12.580269 -1.962747 23.770005 75.520512 -61.757382 -15.457811 70.304913 43.334372 44.252464 17.048462 12.320814 -53.407659 26.821791 8.311827 11.228880 86.650342 -26.603327 -76.182255 0.000000 0.000000 0.000000 2.477242 -19.645841 -7.649002 53.502991 -19.708095 -50.415858 0.000000 0.000000 0.000000 17.008860 -44.846904 -47.475047 24.995164 -0.549367 -1.369351 0.000000 0.000000 0.000000 -3.131914 -36.866408 -13.568895 38.822848 0.155822 -27.266353 0.000000 0.000000 0.000000 77.436693 9.511151 15.845809 -31.306594 -14.587218 8.066609 0.000000 0.000000 0.000000 -10.996407 15.264454 -7.443265 -21.584427 56.378183 -46.623136 -48.732513 48.139226 -43.564714 -27.132288 6.897757 -32.657216 25.904003 12.073528 4.094303 92.971160 4.731312 -13.333342 0.000000 0.000000 0.000000 40.187111 28.301413 -2.449635 55.092541 19.690107 -29.336815 0.000000 0.000000 0.000000 4.995040 23.754718 -27.667320 26.648332 4.874977 -9.354814 0.000000 0.000000 0.000000 36.073438 28.596556 -4.399173 46.246668 21.094871 -24.043841 0.000000 0.000000 0.000000 -17.465280 -7.280536 -5.252564 16.676538 7.144719 1.926189 0.000000 0.000000 0.000000 
0.375977 0.643257 1.049896 -131.779772 -68.699477 124.163896 -70.649248 11.027671 -64.029475 90.817060 28.015091 -2.276353 -61.191627 44.322260 100.007699 0.000000 0.000000 0.000000 -47.962663 50.128088 2.572743 27.616181 45.802062 -53.488184 -88.317144 -29.946867 111.003629 0.000000 0.000000 0.000000 34.630941 2.278751 40.643005 14.382168 5.110273 -32.998667 -37.366100 -50.047993 49.564597 8.523394 12.261272 21.542227 0.000000 0.000000 0.000000 12.888897 -2.184242 24.235566 77.775151 -61.559007 -14.909123 70.624401 46.336688 46.387017 16.754854 12.564326 -53.825097 27.195296 8.946389 11.975997 93.501765 -24.501326 -78.311826 0.000000 0.000000 0.000000 2.026485 -20.068104 -7.748178 58.993487 -20.860214 -53.853665 0.000000 0.000000 0.000000 18.390522 -46.573436 -49.713446 25.614520 -0.520769 -1.362140 0.000000 0.000000 0.000000 -2.955962 -38.546880 -13.993578 39.816058 0.373710 -27.651977 0.000000 0.000000 0.000000 79.997415 8.819831 18.189474 -32.593561 -15.727499 8.616175 0.000000 0.000000 0.000000 -10.811368 14.540600 -9.217842 -18.619549 56.406974 -44.272352 -49.091413 49.117525 -44.506127 -26.518677 6.923433 -32.282531 25.902879 11.693220 4.059868 92.775672 4.039429 -13.025819 0.000000 0.000000 0.000000 39.821197 27.838135 -2.470034 55.558822 20.065569 -29.504980 0.000000 0.000000 0.000000 4.538888 23.456933 -27.435358 27.096838 4.930382 -9.460903 0.000000 0.000000 0.000000 35.619743 28.082977 -4.385042 47.481287 21.584651 -23.844146 0.000000 0.000000 0.000000 -17.673988 -7.901632 -4.924686 16.904143 7.733065 1.851874 0.000000 0.000000 0.000000 
0.375977 0.644547 1.049896 -131.391000 -69.736105 123.489137 -70.869538 10.995432 -63.042209 90.836989 27.534443 -1.828795 -62.747197 43.113827 98.816802 0.000000 0.000000 0.000000 -47.424782 51.235335 4.418653 26.717308 44.580483 -54.555867 -87.825486 -29.938427 110.694476 0.000000 0.000000 0.000000 36.569432 2.668480 41.264477 10.761919 1.935176 -33.802626 -37.474635 -51.723972 50.532074 10.240567 15.094930 24.125882 0.000000 0.000000 0.000000 12.711310 0.104552 25.243178 79.739847 -62.382926 -15.859643 71.730861 46.365497 47.097612 15.728052 12.453676 -53.732373 27.403759 9.202133 12.247233 90.149557 -25.387642 -77.294014 0.000000 0.000000 0.000000 1.659479 -19.934214 -7.711389 56.431329 -19.882086 -52.304495 0.000000 0.000000 0.000000 17.645141 -45.936675 -49.066067 25.272544 -0.517898 -1.440589 0.000000 0.000000 0.000000 -3.779056 -37.898167 -13.568891 39.695006 0.385407 -28.036845 0.000000 0.000000 0.000000 79.076917 9.000509 17.207496 -31.921195 -14.906776 8.347178 0.000000 0.000000 0.000000 -9.712415 18.031412 -10.641834 -16.013348 55.402912 -41.322130 -47.110337 50.101618 -44.055242 -26.774952 7.540631 -31.842646 26.482055 12.581602 4.282992 94.376342 5.152003 -13.605268 0.000000 0.000000 0.000000 40.904280 28.174820 -2.357131 55.590055 20.731465 -30.693081 0.000000 0.000000 0.000000 5.429638 24.057497 -27.799351 28.991150 6.583284 -12.215535 0.000000 0.000000 0.000000 36.634154 29.672740 -4.581842 48.630694 22.049630 -24.446981 0.000000 0.000000 0.000000 -17.414605 -7.693624 -4.907689 16.068709 8.460534 1.402841 0.000000 0.000000 0.000000 
0.375977 0.644547 1.044617 -139.890643 -66.860147 131.975628 -70.395075 11.429536 -66.951008 91.932600 27.427138 -0.952803 -63.304304 43.700185 98.790780 0.000000 0.000000 0.000000 -52.674837 51.043098 -3.183634 28.762807 46.990154 -52.584212 -89.494802 -30.262550 111.720301 0.000000 0.000000 0.000000 32.479301 2.507102 42.039715 11.646330 3.070072 -29.795040 -32.093268 -51.253453 45.934254 8.294512 14.642003 23.589681 0.000000 0.000000 0.000000 11.187524 0.776233 22.581181 78.387661 -63.002905 -18.373612 70.207018 40.353982 40.980943 15.675020 11.905331 -56.661749 24.932829 6.989838 9.877078 77.048114 -33.321504 -77.537178 0.000000 0.000000 0.000000 -0.507067 -18.531492 -6.807131 45.380297 -20.017381 -48.751092 0.000000 0.000000 0.000000 11.072634 -43.460298 -42.812777 23.019049 -0.669811 -2.267199 0.000000 0.000000 0.000000 -7.275444 -34.828416 -10.794833 34.956095 -0.878594 -28.052383 0.000000 0.000000 0.000000 73.644516 7.647534 10.477840 -32.650321 -12.708627 9.137368 0.000000 0.000000 0.000000 -9.618570 18.241960 -8.005292 -20.489067 56.443512 -45.679147 -47.157222 49.031773 -42.521356 -27.273569 6.365177 -33.678629 25.086908 13.186363 4.148720 95.555872 4.266126 -13.763937 0.000000 0.000000 0.000000 38.302671 28.785510 -2.719604 54.681014 20.696739 -30.427810 0.000000 0.000000 0.000000 4.353476 24.254950 -28.425781 24.473713 4.028292 -8.336635 0.000000 0.000000 0.000000 35.056540 29.203298 -4.692712 47.982784 23.197099 -25.804778 0.000000 0.000000 0.000000 -18.203664 -7.699472 -5.340283 16.637190 8.383163 1.578564 0.000000 0.000000 0.000000 
